<mxfile host="app.diagrams.net" modified="2021-10-27T18:11:04.214Z" agent="5.0 (Windows NT 10.0; Win64; x64) AppleWebKit/537.36 (KHTML, like Gecko) Chrome/95.0.4638.54 Safari/537.36" etag="ChVpc-tgu7k1QMt8NVbR" version="15.5.9" type="github">
  <diagram name="Page-1" id="52a04d89-c75d-2922-d76d-85b35f80e030">
    <mxGraphModel dx="784" dy="593" grid="1" gridSize="10" guides="1" tooltips="1" connect="1" arrows="1" fold="1" page="1" pageScale="1" pageWidth="1100" pageHeight="850" background="none" math="0" shadow="0">
      <root>
        <mxCell id="0" />
        <mxCell id="1" parent="0" />
        <mxCell id="wrmkv-2-swTy5kxOgyaR-1" value="&lt;font style=&quot;vertical-align: inherit&quot;&gt;&lt;font style=&quot;vertical-align: inherit&quot;&gt;虫白蜡中药系列研究与开发&lt;/font&gt;&lt;/font&gt;" style="rounded=1;whiteSpace=wrap;html=1;" vertex="1" parent="1">
          <mxGeometry x="350" y="160" width="190" height="40" as="geometry" />
        </mxCell>
        <mxCell id="wrmkv-2-swTy5kxOgyaR-2" value="" style="endArrow=classic;html=1;rounded=0;exitX=0.5;exitY=1;exitDx=0;exitDy=0;" edge="1" parent="1" source="wrmkv-2-swTy5kxOgyaR-1">
          <mxGeometry width="50" height="50" relative="1" as="geometry">
            <mxPoint x="390" y="300" as="sourcePoint" />
            <mxPoint x="445" y="240" as="targetPoint" />
            <Array as="points" />
          </mxGeometry>
        </mxCell>
        <mxCell id="wrmkv-2-swTy5kxOgyaR-28" style="edgeStyle=orthogonalEdgeStyle;rounded=0;orthogonalLoop=1;jettySize=auto;html=1;exitX=0.5;exitY=1;exitDx=0;exitDy=0;entryX=0.5;entryY=0;entryDx=0;entryDy=0;fontFamily=Helvetica;fontSize=12;" edge="1" parent="1" source="wrmkv-2-swTy5kxOgyaR-3" target="wrmkv-2-swTy5kxOgyaR-4">
          <mxGeometry relative="1" as="geometry">
            <Array as="points">
              <mxPoint x="445" y="310" />
              <mxPoint x="295" y="310" />
            </Array>
          </mxGeometry>
        </mxCell>
        <mxCell id="wrmkv-2-swTy5kxOgyaR-29" style="edgeStyle=orthogonalEdgeStyle;rounded=0;orthogonalLoop=1;jettySize=auto;html=1;exitX=0.5;exitY=1;exitDx=0;exitDy=0;entryX=0.5;entryY=0;entryDx=0;entryDy=0;fontFamily=Helvetica;fontSize=12;" edge="1" parent="1" source="wrmkv-2-swTy5kxOgyaR-3" target="wrmkv-2-swTy5kxOgyaR-23">
          <mxGeometry relative="1" as="geometry">
            <Array as="points">
              <mxPoint x="445" y="310" />
              <mxPoint x="740" y="310" />
            </Array>
          </mxGeometry>
        </mxCell>
        <mxCell id="wrmkv-2-swTy5kxOgyaR-3" value="&lt;font style=&quot;vertical-align: inherit&quot;&gt;&lt;font style=&quot;vertical-align: inherit&quot;&gt;&lt;font style=&quot;vertical-align: inherit&quot;&gt;&lt;font style=&quot;vertical-align: inherit&quot;&gt;&lt;font style=&quot;vertical-align: inherit&quot;&gt;&lt;font style=&quot;vertical-align: inherit&quot;&gt;制备微凝胶乳液&lt;/font&gt;&lt;/font&gt;&lt;/font&gt;&lt;/font&gt;&lt;/font&gt;&lt;/font&gt;" style="rounded=1;whiteSpace=wrap;html=1;" vertex="1" parent="1">
          <mxGeometry x="382.5" y="240" width="125" height="40" as="geometry" />
        </mxCell>
        <mxCell id="wrmkv-2-swTy5kxOgyaR-17" style="edgeStyle=orthogonalEdgeStyle;rounded=0;orthogonalLoop=1;jettySize=auto;html=1;exitX=0.5;exitY=1;exitDx=0;exitDy=0;entryX=0.427;entryY=-0.065;entryDx=0;entryDy=0;entryPerimeter=0;fontFamily=Helvetica;fontSize=12;" edge="1" parent="1" source="wrmkv-2-swTy5kxOgyaR-4" target="wrmkv-2-swTy5kxOgyaR-8">
          <mxGeometry relative="1" as="geometry" />
        </mxCell>
        <mxCell id="wrmkv-2-swTy5kxOgyaR-18" style="edgeStyle=orthogonalEdgeStyle;rounded=0;orthogonalLoop=1;jettySize=auto;html=1;exitX=0.5;exitY=1;exitDx=0;exitDy=0;entryX=0.5;entryY=0;entryDx=0;entryDy=0;fontFamily=Helvetica;fontSize=12;" edge="1" parent="1" source="wrmkv-2-swTy5kxOgyaR-4" target="wrmkv-2-swTy5kxOgyaR-13">
          <mxGeometry relative="1" as="geometry" />
        </mxCell>
        <mxCell id="wrmkv-2-swTy5kxOgyaR-19" style="edgeStyle=orthogonalEdgeStyle;rounded=0;orthogonalLoop=1;jettySize=auto;html=1;exitX=0.5;exitY=1;exitDx=0;exitDy=0;entryX=0.5;entryY=0;entryDx=0;entryDy=0;fontFamily=Helvetica;fontSize=12;" edge="1" parent="1" source="wrmkv-2-swTy5kxOgyaR-4" target="wrmkv-2-swTy5kxOgyaR-10">
          <mxGeometry relative="1" as="geometry" />
        </mxCell>
        <mxCell id="wrmkv-2-swTy5kxOgyaR-22" style="edgeStyle=orthogonalEdgeStyle;rounded=0;orthogonalLoop=1;jettySize=auto;html=1;exitX=0.5;exitY=1;exitDx=0;exitDy=0;fontFamily=Helvetica;fontSize=12;" edge="1" parent="1" source="wrmkv-2-swTy5kxOgyaR-4" target="wrmkv-2-swTy5kxOgyaR-15">
          <mxGeometry relative="1" as="geometry" />
        </mxCell>
        <mxCell id="wrmkv-2-swTy5kxOgyaR-4" value="&lt;font style=&quot;vertical-align: inherit&quot;&gt;&lt;font style=&quot;vertical-align: inherit&quot;&gt;对微凝胶乳液的一系列理化性质进行测定&lt;/font&gt;&lt;/font&gt;" style="rounded=1;whiteSpace=wrap;html=1;" vertex="1" parent="1">
          <mxGeometry x="232.5" y="330" width="125" height="50" as="geometry" />
        </mxCell>
        <mxCell id="wrmkv-2-swTy5kxOgyaR-8" value="&lt;p style=&quot;box-sizing: border-box ; margin-top: 1rem ; margin-bottom: 1rem ; position: relative ; color: rgb(51 , 51 , 51)&quot;&gt;&lt;span class=&quot;md-plain md-expand&quot; style=&quot;box-sizing: border-box&quot;&gt;&lt;font style=&quot;font-size: 12px&quot; face=&quot;Helvetica&quot;&gt;微乳液和凝胶微乳液的表征&lt;/font&gt;&lt;/span&gt;&lt;/p&gt;" style="rounded=1;whiteSpace=wrap;html=1;" vertex="1" parent="1">
          <mxGeometry x="180" y="440" width="120" height="40" as="geometry" />
        </mxCell>
        <mxCell id="wrmkv-2-swTy5kxOgyaR-32" style="edgeStyle=orthogonalEdgeStyle;rounded=0;orthogonalLoop=1;jettySize=auto;html=1;exitX=0.5;exitY=1;exitDx=0;exitDy=0;fontFamily=Helvetica;fontSize=9;" edge="1" parent="1" source="wrmkv-2-swTy5kxOgyaR-10">
          <mxGeometry relative="1" as="geometry">
            <mxPoint x="400" y="580" as="targetPoint" />
          </mxGeometry>
        </mxCell>
        <mxCell id="wrmkv-2-swTy5kxOgyaR-10" value="微乳液的渗入能力" style="rounded=1;whiteSpace=wrap;html=1;" vertex="1" parent="1">
          <mxGeometry x="30" y="440" width="120" height="40" as="geometry" />
        </mxCell>
        <mxCell id="wrmkv-2-swTy5kxOgyaR-13" value="&lt;p style=&quot;box-sizing: border-box ; margin-top: 1rem ; margin-bottom: 1rem ; position: relative ; color: rgb(51 , 51 , 51)&quot;&gt;&lt;span class=&quot;md-plain md-expand&quot; style=&quot;box-sizing: border-box&quot;&gt;&lt;font style=&quot;font-size: 12px&quot;&gt;虫白蜡的体外释放&lt;/font&gt;&lt;/span&gt;&lt;/p&gt;" style="rounded=1;whiteSpace=wrap;html=1;fontFamily=Helvetica;fontSize=12;" vertex="1" parent="1">
          <mxGeometry x="330" y="440" width="100" height="40" as="geometry" />
        </mxCell>
        <mxCell id="wrmkv-2-swTy5kxOgyaR-15" value="&lt;p style=&quot;box-sizing: border-box ; margin-top: 1rem ; margin-bottom: 1rem ; font-family: &amp;#34;lm roman 10&amp;#34; , ; position: relative ; color: rgb(51 , 51 , 51)&quot;&gt;&lt;span class=&quot;md-plain md-expand&quot; style=&quot;box-sizing: border-box&quot;&gt;&lt;font style=&quot;font-size: 12px&quot;&gt;生物相容性&lt;/font&gt;&lt;/span&gt;&lt;/p&gt;" style="rounded=1;whiteSpace=wrap;html=1;fontFamily=Helvetica;fontSize=12;" vertex="1" parent="1">
          <mxGeometry x="450" y="440" width="90" height="40" as="geometry" />
        </mxCell>
        <mxCell id="wrmkv-2-swTy5kxOgyaR-23" value="使用计算机模型模拟皮肤进行测试" style="rounded=1;whiteSpace=wrap;html=1;fontFamily=Helvetica;fontSize=12;" vertex="1" parent="1">
          <mxGeometry x="680" y="375" width="120" height="50" as="geometry" />
        </mxCell>
        <mxCell id="wrmkv-2-swTy5kxOgyaR-30" value="&lt;span style=&quot;color: rgb(51 , 51 , 51) ; text-align: left ; background-color: rgb(255 , 255 , 255)&quot;&gt;&lt;font style=&quot;font-size: 9px&quot;&gt;选择一系列合适的浓度，&lt;br&gt;以获得所需的粘度&lt;/font&gt;&lt;/span&gt;" style="text;html=1;align=center;verticalAlign=middle;resizable=0;points=[];autosize=1;strokeColor=none;fillColor=none;fontSize=12;fontFamily=Helvetica;" vertex="1" parent="1">
          <mxGeometry x="507.5" y="245" width="150" height="30" as="geometry" />
        </mxCell>
      </root>
    </mxGraphModel>
  </diagram>
</mxfile>
